<svg xmlns="http://www.w3.org/2000/svg" version="1.1" xmlns:xlink="http://www.w3.org/1999/xlink" xmlns:svgjs="http://svgjs.dev/svgjs" width="2560" height="1440" preserveAspectRatio="none" viewBox="0 0 2560 1440"><g mask="url(&quot;#SvgjsMask1074&quot;)" fill="none"><rect width="2560" height="1440" x="0" y="0" fill="#1e3266"></rect><path d="M2773.3333333333335 1440L0 1440 L0 519.58Q67.33 373.58, 213.33333333333331 440.91Q308.36 407.94, 341.3333333333333 502.97Q517.86 551.5, 469.3333333333333 728.02Q426.89 557.58, 597.3333333333333 515.13Q649.15 438.94, 725.3333333333333 490.76Q886.24 438.33, 938.6666666666665 599.24Q940.65 473.22, 1066.6666666666665 475.2Q1136.16 416.69, 1194.6666666666665 486.18Q1317.48 480.99, 1322.6666666666665 603.8Q1439.29 507.09, 1535.9999999999998 623.72Q1581.47 455.86, 1749.333333333333 501.33Q1794.57 418.57, 1877.333333333333 463.81Q2025.53 398.67, 2090.6666666666665 546.87Q2194.54 522.74, 2218.6666666666665 626.61Q2395.13 589.74, 2432 766.2Q2443.98 650.18, 2560 662.16Q2615.26 504.08, 2773.3333333333335 559.34z" fill="#182f5d"></path><path d="M2602.6666666666665 1440L0 1440 L0 994.13Q7.93 874.06, 128 881.98Q211.25 751.89, 341.3333333333333 835.14Q416.73 782.54, 469.3333333333333 857.94Q553.26 813.87, 597.3333333333333 897.79Q614.88 787.34, 725.3333333333333 804.89Q856.22 722.44, 938.6666666666665 853.33Q1118.49 819.82, 1151.9999999999998 999.64Q1154.38 874.02, 1279.9999999999998 876.4Q1309.96 778.36, 1407.9999999999998 808.32Q1458.3 730.63, 1535.9999999999998 780.93Q1641.81 758.74, 1663.9999999999998 864.56Q1735.67 808.23, 1791.9999999999998 879.9Q1877.06 751.63, 2005.333333333333 836.69Q2010.26 713.62, 2133.333333333333 718.54Q2189.44 646.65, 2261.333333333333 702.76Q2379.33 692.75, 2389.333333333333 810.75Q2456.42 664.5, 2602.6666666666665 731.59z" fill="#25467d"></path><path d="M2688 1440L0 1440 L0 1111.25Q101.18 999.1, 213.33333333333331 1100.28Q311.54 985.16, 426.66666666666663 1083.37Q471.72 915.09, 640 960.14Q753.78 860.58, 853.3333333333333 974.36Q979.52 887.21, 1066.6666666666665 1013.4Q1183.86 1002.6, 1194.6666666666665 1119.79Q1267.03 1064.15, 1322.6666666666665 1136.52Q1355.65 1041.5, 1450.6666666666665 1074.48Q1540.34 1036.15, 1578.6666666666665 1125.83Q1594.2 1013.36, 1706.6666666666665 1028.89Q1805.07 913.96, 1919.9999999999998 1012.37Q2082.55 961.58, 2133.333333333333 1124.13Q2233.58 1096.38, 2261.333333333333 1196.63Q2283.7 1005.66, 2474.6666666666665 1028.03Q2563.5 903.53, 2688 992.37z" fill="#356cb1"></path><path d="M2602.6666666666665 1440L0 1440 L0 1265.01Q117.55 1169.23, 213.33333333333331 1286.78Q300.36 1245.8, 341.3333333333333 1332.83Q417.84 1196, 554.6666666666666 1272.5Q582.47 1172.3, 682.6666666666666 1200.11Q768.19 1157.63, 810.6666666666666 1243.15Q990.71 1209.86, 1024 1389.91Q1173.91 1326.48, 1237.3333333333333 1476.39Q1274.65 1385.7, 1365.3333333333333 1423.02Q1451.97 1296.33, 1578.6666666666665 1382.97Q1670.79 1261.76, 1791.9999999999998 1353.88Q1901.85 1335.74, 1919.9999999999998 1445.59Q1957.66 1355.25, 2047.9999999999998 1392.91Q2064.6 1196.18, 2261.333333333333 1212.78Q2333.92 1157.37, 2389.333333333333 1229.95Q2503.36 1130.64, 2602.6666666666665 1244.66z" fill="white"></path></g><defs><mask id="SvgjsMask1074"><rect width="2560" height="1440" fill="#ffffff"></rect></mask></defs></svg>